<svg width="44" height="44" viewBox="0 0 44 44" fill="none" xmlns="http://www.w3.org/2000/svg">
<path d="M11.1874 8.00879C9.52054 8.00879 8.08864 9.18382 7.76072 10.8179L4.9625 24.809C4.53075 26.9733 6.18126 28.9954 8.38923 28.9954H20.2489V32.4932H16.7511C15.7837 32.4932 15.0022 33.2747 15.0022 34.2421C15.0022 35.2094 15.7837 35.991 16.7511 35.991H27.2444C28.2118 35.991 28.9933 35.2094 28.9933 34.2421C28.9933 33.2747 28.2118 32.4932 27.2444 32.4932H23.7466V28.9954H35.6063C37.8142 28.9954 39.4702 26.9787 39.0385 24.809L36.2402 10.8179C35.9069 9.18382 34.475 8.00879 32.8081 8.00879H11.1874ZM18.7678 11.5066H25.2277L25.7961 17.1904H18.1994L18.7678 11.5066ZM15.5651 17.1904H10.0507L11.1874 11.5066H16.1281L15.5651 17.1904ZM9.526 19.8138H15.3028L14.7344 25.4976H8.38923L9.526 19.8138ZM17.9371 19.8138H26.0584L26.6268 25.4976H17.3687L17.9371 19.8138ZM28.6927 19.8138H34.4695L35.6063 25.4976H29.2666L28.6927 19.8138ZM33.9394 17.1904H28.4304L27.862 11.5066H32.8026L34.5187 11.1623L32.8081 11.5066L33.9448 17.1904H33.9394Z" fill="#005F20"/>
</svg>
