<svg width="44" height="44" viewBox="0 0 44 44" fill="none" xmlns="http://www.w3.org/2000/svg">
<path d="M12.0707 20.2868C12.0707 19.5768 12.6264 19.0012 13.312 19.0012H14.1395C15.0951 19.0012 15.6923 20.0726 15.2145 20.9297C14.9927 21.3274 14.5829 21.5724 14.1395 21.5724H13.312C12.6264 21.5724 12.0707 20.9968 12.0707 20.2868ZM22.001 13.4302C22.6866 13.4302 23.2423 12.8546 23.2423 12.1446V11.2875C23.2423 10.2979 22.2079 9.67932 21.3804 10.1742C20.9963 10.4038 20.7597 10.8282 20.7597 11.2875V12.1446C20.7597 12.8546 21.3155 13.4302 22.001 13.4302ZM15.5639 15.4379C16.2407 16.1389 17.3965 15.8182 17.6442 14.8606C17.7592 14.4162 17.6365 13.942 17.3224 13.6166L16.7369 13.0113C16.0601 12.3103 14.9043 12.631 14.6566 13.5886C14.5416 14.0331 14.6643 14.5073 14.9784 14.8326L15.5639 15.4379ZM27.563 15.815C27.8925 15.815 28.2084 15.6793 28.4412 15.4379L29.0257 14.8326C29.7025 14.1316 29.3928 12.9346 28.4683 12.678C28.0391 12.5589 27.5813 12.686 27.2672 13.0113L26.6817 13.6166C26.0057 14.316 26.3142 15.5111 27.237 15.7678C27.3423 15.7971 27.4509 15.8119 27.5599 15.8118L27.563 15.815ZM28.6212 20.2868C28.6212 20.9968 29.177 21.5724 29.8625 21.5724H30.69C31.6456 21.5724 32.2428 20.501 31.765 19.644C31.5433 19.2462 31.1335 19.0012 30.69 19.0012H29.8625C29.177 19.0012 28.6212 19.5768 28.6212 20.2868ZM17.8634 21.5724C18.5489 21.5724 19.1047 20.9968 19.1047 20.2868C19.1047 17.9776 21.5183 16.5343 23.4492 17.6889C24.3453 18.2248 24.8973 19.2151 24.8973 20.2868C24.8973 21.2765 25.9318 21.895 26.7593 21.4002C27.1433 21.1705 27.3799 20.7461 27.3799 20.2868C27.3782 15.9983 22.8947 13.3199 19.3096 15.4657C17.6471 16.4608 16.6229 18.2982 16.6221 20.2868C16.6221 20.9968 17.1778 21.5724 17.8634 21.5724ZM33.8305 33.3626C33.6081 33.7572 33.2001 33.9999 32.7588 34H11.2432C10.2929 34.0001 9.69498 32.9393 10.1622 32.0823L14.6102 23.9401C14.8303 23.5363 15.2434 23.2865 15.6911 23.2866H28.3109C28.7587 23.2865 29.1717 23.5363 29.3918 23.9401L33.8398 32.0823C34.0567 32.4804 34.0531 32.9679 33.8305 33.3626ZM27.5868 25.8578H23.2423V27.1434H28.2923L27.5868 25.8578ZM16.4152 25.8578L15.7139 27.1434H20.7597V25.8578H16.4152ZM13.3709 31.4288H20.7597V29.7146H14.3061L13.3709 31.4288ZM30.6311 31.4288L29.7001 29.7146H23.2423V31.4288H30.6311Z" fill="#005F20"/>
</svg>
