<svg width="44" height="44" viewBox="0 0 44 44" fill="none" xmlns="http://www.w3.org/2000/svg">
<path d="M25.7607 23.8804H33.2816" stroke="#005F20" stroke-linecap="round" stroke-linejoin="round"/>
<path d="M10.7188 23.8803H14.4792M14.4792 23.8803H18.2397M14.4792 23.8803V20.1196M14.4792 23.8803V27.6407" stroke="#005F20" stroke-linecap="round" stroke-linejoin="round"/>
<path d="M10.7182 12.5988H4.32528C3.70223 12.5988 3.19727 13.104 3.19727 13.727V34.0335C3.19727 34.6566 3.70223 35.1617 4.32528 35.1617H39.6738C40.2968 35.1617 40.8018 34.6566 40.8018 34.0335V13.727C40.8018 13.104 40.2968 12.5988 39.6738 12.5988H33.2809M10.7182 12.5988V8.83838H14.4786V12.5988M10.7182 12.5988H14.4786M33.2809 12.5988V8.83838H29.5204V12.5988M33.2809 12.5988H29.5204M14.4786 12.5988H29.5204" stroke="#005F20" stroke-linecap="round" stroke-linejoin="round"/>
</svg>
