<svg width="44" height="44" viewBox="0 0 44 44" fill="none" xmlns="http://www.w3.org/2000/svg">
<path d="M29.0986 12.4989C29.0025 12.4037 28.873 12.35 28.7378 12.3491H15.2452C15.11 12.35 14.9805 12.4037 14.8844 12.4989L12.8592 14.5411C12.7682 14.6317 12.7148 14.7533 12.7094 14.8815V33.8371C12.7095 33.9725 12.7634 34.1023 12.8592 34.1979L14.8844 36.2402C14.9805 36.3353 15.11 36.3891 15.2452 36.3899H28.7378C28.873 36.3891 29.0025 36.3353 29.0986 36.2402L31.1408 34.1979C31.2366 34.1023 31.2905 33.9725 31.2906 33.8371V14.8815C31.2807 14.7508 31.221 14.629 31.1238 14.5411L29.0986 12.4989ZM30.2524 33.6227L28.5267 35.3484H15.4562L13.7305 33.6227V15.0993L15.4562 13.3736H28.5267L30.2524 15.0993V33.6227ZM11.8721 9.83712C11.3758 9.83802 10.9002 10.0355 10.5493 10.3864C10.1984 10.7373 10.0009 11.213 10 11.7092V37.006C10.0009 37.5023 10.1984 37.9779 10.5493 38.3288C10.9002 38.6797 11.3758 38.8772 11.8721 38.8781H32.1279C32.6242 38.8772 33.0998 38.6797 33.4507 38.3288C33.8016 37.9779 33.9991 37.5023 34 37.006V11.7126C33.9991 11.2164 33.8016 10.7407 33.4507 10.3898C33.0998 10.0389 32.6242 9.84142 32.1279 9.84052H31.7875V8.10119H32.1824C32.3178 8.10119 32.4477 8.0474 32.5434 7.95165C32.6392 7.8559 32.693 7.72604 32.693 7.59063V5.01057C32.693 4.87516 32.6392 4.74529 32.5434 4.64954C32.4477 4.55379 32.3178 4.5 32.1824 4.5H27.6418C27.5063 4.5 27.3765 4.55379 27.2807 4.64954C27.185 4.74529 27.1312 4.87516 27.1312 5.01057V7.59743C27.1312 7.73284 27.185 7.86271 27.2807 7.95846C27.3765 8.05421 27.5063 8.108 27.6418 8.108H28.0366V9.84733H23.8602V8.10119H24.255C24.3904 8.10119 24.5203 8.0474 24.616 7.95165C24.7118 7.8559 24.7656 7.72604 24.7656 7.59063V5.01057C24.7656 4.87516 24.7118 4.74529 24.616 4.64954C24.5203 4.55379 24.3904 4.5 24.255 4.5H19.728C19.5926 4.5 19.4627 4.55379 19.367 4.64954C19.2712 4.74529 19.2174 4.87516 19.2174 5.01057V7.59743C19.2174 7.73284 19.2712 7.86271 19.367 7.95846C19.4627 8.05421 19.5926 8.108 19.728 8.108H20.1228V9.84733H15.9464V8.10119H16.3412C16.4766 8.10119 16.6065 8.0474 16.7023 7.95165C16.798 7.8559 16.8518 7.72604 16.8518 7.59063V5.01057C16.8518 4.87516 16.798 4.74529 16.7023 4.64954C16.6065 4.55379 16.4766 4.5 16.3412 4.5H11.8176C11.6822 4.5 11.5523 4.55379 11.4566 4.64954C11.3608 4.74529 11.307 4.87516 11.307 5.01057V7.59743C11.307 7.73284 11.3608 7.86271 11.4566 7.95846C11.5523 8.05421 11.6822 8.108 11.8176 8.108H12.2125V9.84733L11.8721 9.83712ZM32.9959 11.7092V37.006C32.9959 37.2317 32.9062 37.4482 32.7467 37.6077C32.5871 37.7673 32.3706 37.857 32.1449 37.857H11.8551C11.6294 37.857 11.4129 37.7673 11.2533 37.6077C11.0938 37.4482 11.0041 37.2317 11.0041 37.006V11.7126C11.0041 11.4869 11.0938 11.2705 11.2533 11.1109C11.4129 10.9513 11.6294 10.8617 11.8551 10.8617H32.1279C32.3536 10.8617 32.5701 10.9513 32.7296 11.1109C32.8892 11.2705 32.9789 11.4869 32.9789 11.7126L32.9959 11.7092ZM28.1523 5.51432H31.6548V7.08006H28.1523V5.51432ZM29.0577 8.10119H30.7596V9.84052H29.0577V8.10119ZM20.2385 5.51432H23.7444V7.08006H20.2385V5.51432ZM21.144 8.10119H22.8458V9.84052H21.144V8.10119ZM12.3282 5.51432H15.8307V7.08006H12.3282V5.51432ZM13.2336 8.10119H14.9355V9.84052H13.2336V8.10119ZM25.8718 22.7102L22.9377 21.7673L23.0092 16.6617C23.0116 16.5439 22.9731 16.4289 22.9003 16.3362C22.8275 16.2435 22.7249 16.1788 22.6099 16.1532C22.4949 16.1275 22.3745 16.1425 22.2692 16.1954C22.164 16.2484 22.0803 16.3362 22.0323 16.4438L17.8014 25.9029C17.7619 25.9919 17.7485 26.0903 17.763 26.1866C17.7775 26.2829 17.8193 26.373 17.8833 26.4463C17.9474 26.5197 18.031 26.5732 18.1245 26.6005C18.2179 26.6279 18.3172 26.6279 18.4107 26.6007L21.229 25.7736L20.1501 31.9889C20.1308 32.1081 20.1544 32.2303 20.2167 32.3337C20.2791 32.4372 20.376 32.5152 20.4904 32.5539C20.5461 32.574 20.6048 32.5843 20.664 32.5845C20.7537 32.5846 20.8418 32.561 20.9195 32.5162C20.9972 32.4714 21.0617 32.4069 21.1065 32.3292L26.1611 23.459C26.1999 23.3924 26.2232 23.3179 26.2294 23.2411C26.2355 23.1642 26.2242 23.087 26.1964 23.0151C26.1687 22.9431 26.125 22.8784 26.0689 22.8256C26.0127 22.7729 25.9453 22.7334 25.8718 22.7102ZM21.6511 29.2931L22.3693 25.1371C22.3844 25.0513 22.3773 24.9632 22.3487 24.881C22.3201 24.7988 22.2709 24.7252 22.2059 24.6674C22.1129 24.5827 21.9913 24.5365 21.8656 24.538C21.816 24.5379 21.7668 24.5447 21.7192 24.5584L19.1766 25.3073L21.9472 19.1192L21.903 22.1383C21.8999 22.2461 21.9312 22.3521 21.9924 22.4408C22.0536 22.5296 22.1415 22.5965 22.2434 22.6319L24.9426 23.4999L21.6511 29.2931ZM16.6748 15.3376C16.6728 15.4928 16.6249 15.644 16.5371 15.772C16.4493 15.9 16.3257 15.9992 16.1816 16.057C16.0376 16.1149 15.8796 16.1288 15.7277 16.097C15.5758 16.0653 15.4366 15.9893 15.3278 15.8786C15.219 15.7679 15.1454 15.6274 15.1163 15.475C15.0872 15.3225 15.1038 15.1649 15.1641 15.0218C15.2244 14.8788 15.3257 14.7569 15.4553 14.6713C15.5848 14.5858 15.7367 14.5405 15.8919 14.5411C15.9961 14.5411 16.0991 14.5618 16.1952 14.6019C16.2913 14.6421 16.3784 14.7009 16.4516 14.775C16.5247 14.8491 16.5824 14.937 16.6213 15.0336C16.6602 15.1302 16.6796 15.2335 16.6782 15.3376H16.6748ZM27.3014 15.3376C27.3014 15.1821 27.3475 15.0301 27.4339 14.9008C27.5203 14.7715 27.6431 14.6707 27.7868 14.6112C27.9304 14.5517 28.0885 14.5361 28.241 14.5664C28.3936 14.5968 28.5337 14.6717 28.6436 14.7816C28.7536 14.8916 28.8285 15.0317 28.8588 15.1842C28.8892 15.3367 28.8736 15.4948 28.8141 15.6385C28.7546 15.7822 28.6538 15.905 28.5245 15.9914C28.3952 16.0778 28.2432 16.1239 28.0876 16.1239C27.8797 16.123 27.6806 16.0397 27.5339 15.8924C27.3871 15.745 27.3048 15.5456 27.3048 15.3376H27.3014ZM16.6748 33.3776C16.6748 33.5331 16.6287 33.6851 16.5423 33.8144C16.4559 33.9437 16.3331 34.0445 16.1894 34.104C16.0457 34.1635 15.8877 34.1791 15.7351 34.1488C15.5826 34.1184 15.4425 34.0435 15.3325 33.9336C15.2226 33.8236 15.1477 33.6835 15.1174 33.531C15.087 33.3785 15.1026 33.2204 15.1621 33.0767C15.2216 32.933 15.3224 32.8102 15.4517 32.7238C15.581 32.6374 15.733 32.5913 15.8885 32.5913C15.9929 32.5909 16.0964 32.6112 16.1928 32.6512C16.2893 32.6911 16.3768 32.7499 16.4504 32.824C16.5239 32.8982 16.5819 32.9862 16.621 33.083C16.6601 33.1798 16.6796 33.2834 16.6782 33.3878L16.6748 33.3776ZM28.8739 33.3776C28.8739 33.5331 28.8278 33.6851 28.7414 33.8144C28.655 33.9437 28.5322 34.0445 28.3885 34.104C28.2449 34.1635 28.0868 34.1791 27.9343 34.1488C27.7817 34.1184 27.6416 34.0435 27.5317 33.9336C27.4217 33.8236 27.3468 33.6835 27.3165 33.531C27.2861 33.3785 27.3017 33.2204 27.3612 33.0767C27.4207 32.933 27.5215 32.8102 27.6508 32.7238C27.7801 32.6374 27.9321 32.5913 28.0876 32.5913C28.1921 32.5909 28.2955 32.6112 28.392 32.6512C28.4884 32.6911 28.576 32.7499 28.6495 32.824C28.723 32.8982 28.781 32.9862 28.8201 33.083C28.8592 33.1798 28.8787 33.2834 28.8773 33.3878L28.8739 33.3776Z" fill="#005F20"/>
</svg>
