<svg width="44" height="44" viewBox="0 0 44 44" fill="none" xmlns="http://www.w3.org/2000/svg">
<path d="M35.699 17.9497L32.8744 15.5939C32.4555 15.2349 31.9372 15.0119 31.3885 14.9545C31.1152 14.9217 30.838 14.9556 30.5806 15.0533C30.3232 15.151 30.0933 15.3095 29.9106 15.5154L27.7138 18.1511L19.3248 28.2111L19.3299 28.2153C19.2202 28.3429 19.1605 28.506 19.1621 28.6743L19.2729 34.1294C19.2767 34.3128 19.3522 34.4874 19.4833 34.6158C19.6144 34.7442 19.7906 34.816 19.974 34.816C20.0211 34.8162 20.0681 34.8115 20.1142 34.802L25.3618 33.7349C25.5168 33.7016 25.6557 33.6161 25.7554 33.4928L25.7605 33.497L34.1074 23.487L36.3042 20.8513C36.967 20.0591 36.6997 18.7844 35.699 17.9497ZM20.6578 33.2605L20.5947 30.1653L23.6329 32.6547L20.6578 33.2605ZM25.1276 32.0653L20.8546 28.5658L28.3406 19.5893L32.5823 23.1271L25.1276 32.0653ZM35.2292 19.9534L33.4802 22.0502L29.2385 18.5143L30.988 16.417C31.0281 16.3871 31.074 16.366 31.1228 16.3551C31.1716 16.3441 31.2222 16.3436 31.2712 16.3535C31.5326 16.3873 31.778 16.4983 31.9761 16.6722L34.8006 19.028C35.24 19.393 35.3283 19.8352 35.2292 19.9534Z" fill="#005F20"/>
<path d="M16.8457 29.2221C16.811 29.2 16.7744 29.1811 16.7363 29.1655C16.7321 29.1655 16.7284 29.1608 16.7242 29.1594C16.6444 29.1279 16.5594 29.1112 16.4736 29.1104H16.4601C16.3744 29.1104 16.2895 29.1262 16.2095 29.1571C16.2054 29.1581 16.2014 29.1593 16.1974 29.1608C16.1122 29.1955 16.0349 29.2469 15.9698 29.3118L15.9665 29.3151L14.1904 31.0912C14.0023 31.2778 13.7481 31.3825 13.4832 31.3825C13.2182 31.3825 12.964 31.2778 12.776 31.0912L12.2857 30.6004C12.0994 30.4126 11.9949 30.1587 11.9949 29.8942C11.9949 29.6296 12.0994 29.3758 12.2857 29.1879L14.0618 27.4118H14.0642V27.4095C14.1285 27.3445 14.1797 27.2677 14.2147 27.1832C14.2147 27.1786 14.217 27.1744 14.2184 27.1702C14.2493 27.0902 14.2651 27.0053 14.2651 26.9196C14.2654 26.9154 14.2654 26.9112 14.2651 26.907C14.2653 26.8209 14.2494 26.7354 14.2184 26.6551L14.2133 26.6457C14.1976 26.6068 14.1783 26.5694 14.1558 26.534C13.574 25.6388 13.162 24.6441 12.9405 23.5996C12.9382 23.5889 12.9335 23.5795 12.9307 23.5693C12.9225 23.535 12.9117 23.5014 12.8984 23.4688C12.891 23.4519 12.8812 23.4375 12.8727 23.422C12.8607 23.397 12.8472 23.3728 12.8321 23.3496C12.8218 23.3351 12.8092 23.3225 12.798 23.3084C12.7813 23.2865 12.7634 23.2656 12.7442 23.2458C12.7339 23.2355 12.7218 23.2276 12.711 23.2182C12.6881 23.1974 12.6637 23.1782 12.6381 23.1607C12.6288 23.1547 12.6185 23.1505 12.6087 23.1449C12.58 23.127 12.55 23.1114 12.5189 23.0981C12.5072 23.0934 12.4946 23.0911 12.4829 23.0869C12.4525 23.0753 12.4213 23.0661 12.3894 23.0593C12.367 23.0551 12.3427 23.0546 12.3212 23.0523C12.2997 23.05 12.2777 23.0458 12.2548 23.0458H9.73738C9.47197 23.0454 9.21753 22.9398 9.02985 22.7521C8.84217 22.5644 8.73657 22.31 8.7362 22.0446V21.3575C8.73657 21.0921 8.84217 20.8376 9.02985 20.65C9.21753 20.4623 9.47197 20.3567 9.73738 20.3563H12.2553H12.259C12.3298 20.355 12.3999 20.3428 12.467 20.3203C12.4787 20.3166 12.4899 20.3142 12.5007 20.31C12.5641 20.286 12.6237 20.2528 12.6774 20.2114C12.6876 20.2039 12.6965 20.196 12.7063 20.1876C12.7592 20.1434 12.8053 20.0917 12.8433 20.0343C12.848 20.0268 12.8512 20.0188 12.8554 20.0114C12.894 19.9477 12.9221 19.8783 12.9386 19.8057V19.802C13.1604 18.7578 13.5724 17.7633 14.1539 16.8681C14.1764 16.8326 14.1956 16.7952 14.2114 16.7564L14.2161 16.747C14.2481 16.6667 14.2648 16.5811 14.2651 16.4946C14.2654 16.4906 14.2654 16.4865 14.2651 16.4825C14.2641 16.3967 14.2475 16.3118 14.2161 16.2319C14.2161 16.2273 14.2137 16.223 14.2123 16.2188C14.1774 16.1338 14.126 16.0566 14.0609 15.9917L14.0571 15.9875L12.2833 14.2137C12.0966 14.0257 11.9918 13.7715 11.9918 13.5065C11.9918 13.2415 12.0966 12.9873 12.2833 12.7993L12.7737 12.3085C12.9616 12.1224 13.2154 12.0179 13.4799 12.0179C13.7444 12.0179 13.9982 12.1224 14.1861 12.3085L15.9674 14.0893C15.9702 14.0926 15.9744 14.0931 15.9772 14.0964C16.0363 14.1524 16.1046 14.1978 16.1792 14.2305C16.196 14.2375 16.2124 14.2436 16.2292 14.2497C16.3038 14.2785 16.3829 14.2943 16.4629 14.2964C16.5429 14.2943 16.6219 14.2785 16.6966 14.2497C16.7195 14.2412 16.7396 14.23 16.7616 14.2197C16.7896 14.2091 16.8169 14.1966 16.8434 14.1824C17.7383 13.6007 18.7327 13.1888 19.7768 12.9671C19.7857 12.9671 19.7927 12.961 19.8011 12.9592C19.8378 12.9505 19.8737 12.939 19.9086 12.9246C19.9259 12.9171 19.9413 12.9068 19.9581 12.8979C19.9818 12.8862 20.0049 12.8732 20.0273 12.8591C20.0455 12.8455 20.063 12.831 20.0797 12.8157C20.0965 12.8016 20.1147 12.7881 20.1301 12.7727C20.1456 12.7572 20.1591 12.7381 20.1731 12.7208C20.1872 12.7035 20.2026 12.6867 20.2152 12.6675C20.2278 12.6483 20.2362 12.6292 20.2465 12.61C20.2568 12.5908 20.2694 12.5698 20.2783 12.5483C20.2872 12.5248 20.2947 12.5007 20.3007 12.4763C20.3064 12.4572 20.3138 12.4385 20.318 12.4184C20.3238 12.3847 20.3273 12.3506 20.3283 12.3165C20.3283 12.3048 20.3316 12.2936 20.3316 12.2814V9.75789C20.3318 9.49236 20.4375 9.23777 20.6253 9.05006C20.8131 8.86234 21.0677 8.75683 21.3332 8.75671H22.0199C22.1516 8.7564 22.2821 8.78206 22.4039 8.83223C22.5257 8.88239 22.6364 8.95608 22.7297 9.04906C22.8229 9.14205 22.897 9.25252 22.9475 9.37414C22.9981 9.49577 23.0242 9.62617 23.0243 9.75789V12.2749C23.0243 12.2903 23.0276 12.3043 23.0285 12.3216C23.0297 12.3529 23.0328 12.3842 23.0379 12.4151C23.0432 12.4374 23.0498 12.4594 23.0575 12.481C23.0641 12.5025 23.0687 12.5245 23.0771 12.545C23.0875 12.5676 23.099 12.5896 23.1117 12.6109C23.1205 12.6292 23.1301 12.647 23.1407 12.6642C23.1681 12.7 23.1965 12.7351 23.2258 12.7694C23.2417 12.7846 23.2584 12.7989 23.2758 12.8124C23.2928 12.8279 23.3106 12.8426 23.3291 12.8563C23.3496 12.8703 23.3725 12.8811 23.3945 12.8932C23.4165 12.9054 23.4291 12.9138 23.4478 12.9222C23.4798 12.9351 23.5128 12.9456 23.5464 12.9535C23.5576 12.9568 23.5674 12.962 23.5787 12.9643C24.623 13.186 25.6177 13.598 26.513 14.1795C26.5391 14.1934 26.566 14.2057 26.5934 14.2165C26.6159 14.2272 26.6369 14.2384 26.6598 14.2469C26.8097 14.3076 26.9773 14.3076 27.1272 14.2469C27.1445 14.2408 27.1604 14.2352 27.1772 14.2282C27.2519 14.1956 27.3202 14.1502 27.3791 14.094C27.3819 14.0912 27.3862 14.0903 27.389 14.087L29.1679 12.3081C29.3561 12.1217 29.6102 12.0171 29.8751 12.0171C30.1399 12.0171 30.3941 12.1217 30.5823 12.3081L31.073 12.7988C31.1994 12.9266 31.2889 13.0861 31.332 13.2605C31.3751 13.435 31.3703 13.6178 31.318 13.7897C31.3717 13.7897 31.425 13.7897 31.4797 13.7939C31.8936 13.8328 32.298 13.9414 32.6758 14.115C32.7848 13.7106 32.7857 13.2845 32.6784 12.8796C32.5712 12.4746 32.3594 12.1049 32.0644 11.8075L31.5741 11.3167C31.1228 10.8683 30.5124 10.6167 29.8763 10.6167C29.2401 10.6167 28.6297 10.8683 28.1784 11.3167L26.7804 12.7152C26.0399 12.2909 25.2485 11.9625 24.4251 11.7378V9.75789C24.4244 9.12062 24.1709 8.50966 23.7202 8.05909C23.2695 7.60851 22.6585 7.35511 22.0213 7.35449H21.3361C20.6988 7.35511 20.0878 7.60851 19.6371 8.05909C19.1864 8.50966 18.9329 9.12062 18.9322 9.75789V11.7345C18.1088 11.9589 17.3174 12.2871 16.5769 12.7114L15.1747 11.3092C14.7235 10.8613 14.1136 10.6099 13.4778 10.6099C12.842 10.6099 12.2321 10.8613 11.7809 11.3092L11.2906 11.8C10.8422 12.2512 10.5906 12.8615 10.5906 13.4976C10.5906 14.1337 10.8422 14.744 11.2906 15.1952L12.6909 16.5984C12.2668 17.3389 11.9386 18.1303 11.714 18.9536H9.73738C9.10035 18.9544 8.48961 19.2077 8.03907 19.6581C7.58854 20.1084 7.33497 20.7191 7.33398 21.3561V22.0432C7.33473 22.6804 7.58818 23.2913 8.03874 23.7418C8.48931 24.1924 9.10019 24.4458 9.73738 24.4466H11.714C11.9386 25.2699 12.2668 26.0613 12.6909 26.8018L11.2887 28.2041C10.8407 28.6551 10.5893 29.265 10.5893 29.9007C10.5893 30.5365 10.8407 31.1464 11.2887 31.5974L11.779 32.0882C12.2303 32.5364 12.8406 32.788 13.4766 32.788C14.1127 32.788 14.7229 32.5364 15.1742 32.0882L16.5788 30.6878C17.0497 30.9557 17.5414 31.185 18.0493 31.3735L18.0184 29.8526C17.6121 29.6725 17.22 29.4617 16.8457 29.2221Z" fill="#005F20"/>
<path d="M16.5749 21.6994C16.5737 20.6264 16.911 19.5802 17.539 18.71C18.1669 17.8399 19.0534 17.19 20.0722 16.853C21.091 16.516 22.1902 16.5091 23.2132 16.8332C24.2362 17.1573 25.1308 17.7959 25.7697 18.658L26.6905 17.5536C26.0819 16.8167 25.3184 16.2231 24.4544 15.8148C23.5903 15.4065 22.6469 15.1937 21.6913 15.1914C20.7356 15.1892 19.7912 15.3975 18.9252 15.8017C18.0592 16.2058 17.293 16.7959 16.6809 17.5298C16.0688 18.2637 15.626 19.1235 15.384 20.048C15.1419 20.9725 15.1066 21.939 15.2804 22.8787C15.4543 23.8184 15.8331 24.7082 16.3899 25.4849C16.9467 26.2616 17.6679 26.906 18.502 27.3724L19.4209 26.2707C18.5678 25.8496 17.8492 25.1984 17.3463 24.3907C16.8435 23.583 16.5763 22.6509 16.5749 21.6994Z" fill="#005F20"/>
</svg>
