<svg width="44" height="44" viewBox="0 0 44 44" fill="none" xmlns="http://www.w3.org/2000/svg">
<path d="M36.1784 20.9005H32.2673C31.9984 20.9005 31.7784 21.1205 31.7784 21.3894H12.2229C12.2229 21.1205 12.0029 20.9005 11.734 20.9005H7.82287C7.55398 20.9005 7.33398 21.1205 7.33398 21.3894V31.1672C7.33398 31.4361 7.55398 31.6561 7.82287 31.6561H11.734C12.0029 31.6561 12.2229 31.4361 12.2229 31.1672V30.6783H14.4766L18.114 34.0759C18.4415 34.4084 18.8766 34.5893 19.3411 34.5893C19.8055 34.5893 20.2406 34.4084 20.5682 34.0759C20.7638 33.8804 20.8909 33.6506 20.974 33.4013C21.2966 33.7044 21.7122 33.8755 22.1571 33.8755C22.602 33.8755 23.0566 33.6946 23.3842 33.3622C23.5798 33.1666 23.7069 32.9319 23.79 32.6875C24.1126 32.9906 24.5282 33.1617 24.9731 33.1617C25.418 33.1617 25.8726 32.9808 26.2002 32.6484C26.3909 32.4577 26.518 32.2329 26.6011 31.9933H26.606C26.9335 32.3257 27.3686 32.5115 27.8331 32.5115C28.2975 32.5115 28.7326 32.3306 29.0602 31.9982C29.3829 31.6706 29.5638 31.2306 29.5638 30.7662V30.6782H31.7784V31.1671C31.7784 31.4359 31.9984 31.6559 32.2673 31.6559H36.1784C36.4473 31.6559 36.6673 31.4359 36.6673 31.1671V21.3893C36.6673 21.1204 36.4473 20.9005 36.1784 20.9005ZM11.2449 30.6783H8.31161V21.8783H11.2449V30.6783ZM28.3659 31.3138C28.0823 31.5974 27.5837 31.5974 27.3001 31.3138L26.2588 30.2627C26.2393 30.2383 26.2197 30.2089 26.1953 30.1845C26.1806 30.1698 26.1659 30.1649 26.1513 30.1551L23.8095 27.7889C23.6188 27.5983 23.3108 27.5983 23.1202 27.7889C22.9295 27.9796 22.9246 28.2876 23.1202 28.4832L25.5646 30.952C25.7944 31.2551 25.7748 31.6903 25.501 31.9689C25.2175 32.2574 24.7188 32.2574 24.4353 31.9689L23.3793 30.9032L21.3699 28.8694C21.1793 28.6787 20.8713 28.6738 20.6806 28.8694C20.4899 29.0601 20.4851 29.3681 20.6806 29.5587L22.6948 31.5925C22.9931 31.8956 22.9931 32.3845 22.6948 32.6827C22.4113 32.9712 21.9126 32.9712 21.6291 32.6827L18.8277 29.852C18.6371 29.6614 18.3291 29.6565 18.1384 29.852C17.9478 30.0427 17.9429 30.3507 18.1384 30.5414L19.8837 32.3062C20.182 32.6094 20.182 33.0982 19.8837 33.3965C19.6002 33.6849 19.1162 33.6996 18.8033 33.3818L15.0145 29.8374C14.9217 29.7543 14.8043 29.7054 14.6821 29.7054H12.2377V22.3719H19.3706L17.2733 24.4692C16.9213 24.8212 16.7306 25.2906 16.7306 25.7941C16.7306 26.2977 16.9261 26.767 17.2733 27.119C18.0017 27.8475 19.1897 27.8475 19.9181 27.119L21.7319 25.3053H23.7608L28.3856 30.2282C28.4345 30.2771 28.4785 30.3407 28.5176 30.414C28.5176 30.414 28.5176 30.4238 28.5225 30.4238C28.5763 30.5314 28.6007 30.6487 28.6007 30.7709C28.6007 30.9763 28.5225 31.1718 28.3807 31.3185L28.3659 31.3138ZM29.2068 29.7005C29.1628 29.6418 29.1188 29.5881 29.0699 29.5441L24.3131 24.479C24.2202 24.3812 24.0931 24.3226 23.9562 24.3226H21.5117C21.3797 24.3226 21.2575 24.3763 21.1646 24.4643L19.2091 26.4199C18.8619 26.767 18.2948 26.767 17.9428 26.4199C17.7766 26.2537 17.6837 26.0288 17.6837 25.7892C17.6837 25.5497 17.7766 25.3248 17.9428 25.1586L20.7344 22.367H31.7784V29.7005L29.2068 29.7005ZM35.6895 30.6783H32.7562V21.8783H35.6895V30.6783Z" fill="#005F20"/>
<path d="M22.001 19.9219C24.9685 19.9219 27.3789 17.5117 27.3789 14.5439C27.3789 11.5762 24.9687 9.16602 22.001 9.16602C19.0333 9.16602 16.623 11.5762 16.623 14.5439C16.623 17.5117 19.0333 19.9219 22.001 19.9219ZM22.001 10.1441C24.4259 10.1441 26.4008 12.1192 26.4008 14.5439C26.4008 16.9687 24.4257 18.9438 22.001 18.9438C19.5762 18.9438 17.6011 16.9687 17.6011 14.5439C17.6011 12.1192 19.5762 10.1441 22.001 10.1441Z" fill="#005F20"/>
<path d="M20.6761 16.3586C20.7739 16.4564 20.8961 16.5004 21.0232 16.5004C21.1503 16.5004 21.2726 16.4515 21.3703 16.3586L24.548 13.1809C24.7387 12.9903 24.7387 12.6823 24.548 12.4916C24.3574 12.301 24.0494 12.301 23.8587 12.4916L21.028 15.3223L19.9085 14.2028C19.7178 14.0121 19.4098 14.0121 19.2192 14.2028C19.0285 14.3934 19.0285 14.7014 19.2192 14.8921L20.6858 16.3587L20.6761 16.3586Z" fill="#005F20"/>
</svg>
