<svg width="44" height="44" viewBox="0 0 44 44" fill="none" xmlns="http://www.w3.org/2000/svg">
<path d="M22.0041 13.752C17.9617 13.752 14.6719 17.0417 14.6719 21.0842C14.6719 25.1267 17.9617 28.4165 22.0041 28.4165C26.0466 28.4165 29.3364 25.1267 29.3364 21.0842C29.3364 17.0417 26.0466 13.752 22.0041 13.752ZM22.0041 27.4386C18.4994 27.4386 15.6498 24.5888 15.6498 21.0842C15.6498 17.5796 18.4996 14.7299 22.0041 14.7299C25.5087 14.7299 28.3585 17.5796 28.3585 21.0842C28.3585 24.5888 25.5087 27.4386 22.0041 27.4386Z" fill="#005F20"/>
<path d="M22.0041 19.6175C23.0843 19.6175 23.9593 18.7425 23.9593 17.6623C23.9593 16.582 23.0843 15.707 22.0041 15.707C20.9238 15.707 20.0488 16.582 20.0488 17.6623C20.0488 18.7425 20.9238 19.6175 22.0041 19.6175ZM22.0041 16.6846C22.5418 16.6846 22.9817 17.1246 22.9817 17.6623C22.9817 18.2 22.5418 18.6399 22.0041 18.6399C21.4664 18.6399 21.0264 18.2 21.0264 17.6623C21.0264 17.1246 21.4664 16.6846 22.0041 16.6846Z" fill="#005F20"/>
<path d="M25.1165 21.8813C24.2806 21.0503 23.1759 20.5957 22.0028 20.5957C19.9253 20.5957 18.1608 22.0083 17.7063 24.0319C17.6721 24.1785 17.7063 24.3301 17.804 24.4425C18.8354 25.7232 20.3654 26.4564 22.0029 26.4564C23.6405 26.4564 25.1704 25.7232 26.2018 24.4425C26.2947 24.3252 26.3289 24.1737 26.2996 24.027C26.1138 23.2107 25.7081 22.4677 25.1167 21.8763L25.1165 21.8813ZM22.0028 25.4839C20.7417 25.4839 19.5587 24.9511 18.723 24.0175C19.1531 22.5657 20.468 21.5734 22.0028 21.5734C22.9119 21.5734 23.7722 21.9303 24.4224 22.5755C24.8232 22.9763 25.1165 23.4749 25.2827 24.0175C24.4468 24.9511 23.2638 25.4839 22.0028 25.4839Z" fill="#005F20"/>
<path d="M34.4677 18.6645C33.4901 13.5615 29.5258 9.59228 24.4178 8.61466C24.2907 7.38286 23.2594 6.41992 21.9982 6.41992C20.7371 6.41992 19.7057 7.38778 19.5786 8.61466C14.4756 9.59228 10.5063 13.5565 9.52872 18.6645C8.29693 18.7916 7.33398 19.823 7.33398 21.0841C7.33398 22.3453 8.30184 23.3766 9.52872 23.5038C10.5063 28.6067 14.4706 32.576 19.5786 33.5536C19.7057 34.7854 20.7371 35.7484 21.9982 35.7484C23.2594 35.7484 24.2907 34.7805 24.4178 33.5536C29.5208 32.576 33.4851 28.6118 34.4677 23.5038C35.6995 23.3767 36.6673 22.3502 36.6673 21.0841C36.6673 19.8181 35.6995 18.7916 34.4677 18.6645ZM22.003 7.39741C22.8096 7.39741 23.4695 8.05731 23.4695 8.86383C23.4695 9.67036 22.8096 10.3303 22.003 10.3303C21.1965 10.3303 20.5366 9.67036 20.5366 8.86383C20.5366 8.05731 21.1965 7.39741 22.003 7.39741ZM8.31642 21.084C8.31642 20.2775 8.97632 19.6176 9.78284 19.6176C10.5894 19.6176 11.2493 20.2775 11.2493 21.084C11.2493 21.8905 10.5894 22.5504 9.78284 22.5504C8.97632 22.5504 8.31642 21.8905 8.31642 21.084ZM22.003 34.7706C21.1965 34.7706 20.5366 34.1107 20.5366 33.3042C20.5366 32.4977 21.1965 31.8378 22.003 31.8378C22.8096 31.8378 23.4695 32.4977 23.4695 33.3042C23.4695 34.1107 22.8096 34.7706 22.003 34.7706ZM24.3249 32.5759C24.012 31.5836 23.098 30.8602 22.003 30.8602C20.9081 30.8602 19.994 31.5836 19.6812 32.5759C15.0424 31.6521 11.4351 28.0448 10.5113 23.406C11.5036 23.0932 12.227 22.1791 12.227 21.0842C12.227 19.9893 11.5036 19.0752 10.5113 18.7623C11.4352 14.1236 15.0424 10.5163 19.6812 9.59246C19.994 10.5848 20.9081 11.3082 22.003 11.3082C23.098 11.3082 24.012 10.5848 24.3249 9.59246C28.9636 10.5163 32.5709 14.1236 33.4947 18.7623C32.5025 19.0752 31.779 19.9893 31.779 21.0842C31.779 22.1791 32.5025 23.0932 33.4947 23.406C32.5709 28.0448 28.9636 31.6521 24.3249 32.5759ZM34.2233 22.5504C33.4168 22.5504 32.7569 21.8905 32.7569 21.084C32.7569 20.2775 33.4168 19.6176 34.2233 19.6176C35.0299 19.6176 35.6898 20.2775 35.6898 21.084C35.6898 21.8905 35.0299 22.5504 34.2233 22.5504Z" fill="#005F20"/>
</svg>
