<svg width="44" height="44" viewBox="0 0 44 44" fill="none" xmlns="http://www.w3.org/2000/svg">
<path d="M34.6112 26.7167V13.8115C34.6112 13.6955 34.5499 13.5902 34.4512 13.5355L21.1327 5.84575C21.0341 5.78709 20.9114 5.78709 20.8114 5.84575L7.49397 13.5355C7.39531 13.5942 7.33398 13.6995 7.33398 13.8115V29.1901C7.33398 29.3061 7.39531 29.4114 7.49397 29.466L20.8114 37.1558C20.8621 37.1825 20.9167 37.1998 20.9714 37.1998C21.0261 37.1998 21.0807 37.1865 21.1314 37.1558L25.7041 34.5148C26.776 36.1293 28.6091 37.1972 30.6877 37.1972C33.9848 37.1972 36.6673 34.5148 36.6673 31.2176C36.6726 29.4231 35.8697 27.8114 34.6112 26.7167ZM20.9726 21.1334L17.065 18.8736L29.7412 11.5531L33.6487 13.8089L20.9726 21.1334ZM12.5254 16.9924L16.1022 19.0575V23.1118C16.1022 23.2145 16.0343 23.2625 16.0063 23.2785C15.9796 23.2958 15.9009 23.3291 15.8156 23.2785L12.8466 21.5653C12.6386 21.4453 12.5253 21.248 12.5253 21.0094L12.5254 16.9924ZM12.8467 16.4405L25.5229 9.11996L29.0997 11.1851L16.4222 18.5042L12.8467 16.4405ZM20.9727 6.4947L24.8802 8.75047L12.2041 16.0672L8.29655 13.8114L20.9727 6.4947ZM7.97539 14.3684L11.8829 16.6242V21.0106C11.8829 21.4812 12.1149 21.8838 12.5242 22.1198L15.4932 23.833C15.6225 23.9076 15.7665 23.9449 15.9092 23.9449C16.0532 23.9449 16.1958 23.9076 16.3252 23.833C16.5851 23.6823 16.7411 23.413 16.7411 23.109L16.7438 19.4295L20.6513 21.6853V36.3239L7.97516 29.0061L7.97539 14.3684ZM21.2939 36.3235V21.6849L33.9687 14.3681V26.2282C33.0261 25.607 31.9009 25.2417 30.689 25.2417C27.392 25.2417 24.7095 27.9241 24.7095 31.2212C24.7095 32.2104 24.9548 33.1397 25.3814 33.9622L21.2939 36.3235ZM30.6929 36.5595C27.7479 36.5595 25.3546 34.1637 25.3546 31.2212C25.3546 28.2762 27.7504 25.883 30.6929 25.883C33.6379 25.883 36.0311 28.2787 36.0311 31.2212C36.0311 34.1636 33.6341 36.5595 30.6929 36.5595ZM33.7406 28.8697C33.8632 28.999 33.8566 29.2003 33.7299 29.3229L29.2596 33.5823C29.1983 33.641 29.1196 33.6717 29.0383 33.6717H29.0143C28.925 33.665 28.8396 33.621 28.785 33.5517L26.9518 31.2346C26.8425 31.0946 26.8665 30.8933 27.0025 30.784C27.1425 30.6746 27.3438 30.6986 27.4531 30.8346L29.0676 32.8758L33.2833 28.8549C33.4166 28.7363 33.6206 28.7403 33.7406 28.8697Z" fill="#005F20"/>
</svg>
