<svg width="64" height="64" viewBox="0 0 64 64" fill="none" xmlns="http://www.w3.org/2000/svg">
<g clip-path="url(#clip0_947_4329)">
<path fill-rule="evenodd" clip-rule="evenodd" d="M26.0405 2.85648L23.3325 4.84448C22.8554 5.2251 22.3499 5.56876 21.8205 5.87248C21.464 6.062 21.0903 6.21736 20.7045 6.33648C20.2685 6.46848 19.8165 6.53648 18.9085 6.67648L15.5885 7.18448C12.9685 7.58448 11.6565 7.78848 10.6285 8.40048C9.70848 8.94048 8.94448 9.70848 8.40048 10.6285C7.78848 11.6685 7.58848 12.9805 7.18448 15.5885L6.67648 18.9085C6.53648 19.8165 6.46848 20.2725 6.33648 20.7085C6.21648 21.0951 6.06181 21.4658 5.87248 21.8205C5.65648 22.2205 5.38848 22.5925 4.84448 23.3325L2.85648 26.0405C1.28848 28.1765 0.504478 29.2445 0.200478 30.4005C-0.0616176 31.4334 -0.0616176 32.5155 0.200478 33.5485C0.500478 34.7165 1.28848 35.7885 2.85648 37.9085L4.84448 40.6165C5.38848 41.3565 5.66048 41.7285 5.87248 42.1285C6.05915 42.4858 6.21381 42.8591 6.33648 43.2485C6.46848 43.6805 6.53648 44.1325 6.67648 45.0405L7.18448 48.3605C7.58448 50.9805 7.78848 52.2885 8.40048 53.3205C8.94048 54.2405 9.70848 55.0085 10.6285 55.5485C11.6685 56.1605 12.9805 56.3605 15.5885 56.7645L18.9085 57.2725C19.8165 57.4125 20.2725 57.4845 20.7045 57.6165C21.0911 57.7338 21.4631 57.8885 21.8205 58.0805C22.2205 58.2925 22.5925 58.5605 23.3325 59.1085L26.0405 61.0965C28.1765 62.6645 29.2445 63.4485 30.4005 63.7525C31.4325 64.0205 32.5165 64.0205 33.5485 63.7525C34.7165 63.4485 35.7885 62.6645 37.9085 61.0965L40.6165 59.1085C41.3565 58.5645 41.7285 58.2925 42.1285 58.0805C42.4858 57.8885 42.8578 57.7338 43.2445 57.6165C43.6805 57.4845 44.1325 57.4165 45.0405 57.2725L48.3605 56.7645C50.9805 56.3645 52.2885 56.1645 53.3205 55.5485C54.2405 55.0085 55.0085 54.2405 55.5485 53.3205C56.1605 52.2805 56.3605 50.9685 56.7645 48.3605L57.2725 45.0405C57.4125 44.1325 57.4805 43.6805 57.6125 43.2445C57.7325 42.8578 57.8871 42.4858 58.0765 42.1285C58.2925 41.7285 58.5605 41.3565 59.1045 40.6165L61.0925 37.9085C62.6605 35.7725 63.4445 34.7085 63.7485 33.5485C64.0106 32.5155 64.0106 31.4334 63.7485 30.4005C63.4485 29.2325 62.6605 28.1605 61.0925 26.0405L59.1045 23.3325C58.7239 22.8554 58.3802 22.3499 58.0765 21.8205C57.887 21.4639 57.7316 21.0903 57.6125 20.7045C57.4537 20.1153 57.34 19.5149 57.2725 18.9085L56.7645 15.5885C56.3645 12.9685 56.1605 11.6565 55.5485 10.6285C55.0031 9.71174 54.2372 8.94587 53.3205 8.40048C52.2805 7.78848 50.9685 7.58848 48.3605 7.18448L45.0405 6.67648C44.434 6.60897 43.8336 6.49531 43.2445 6.33648C42.8578 6.21977 42.4839 6.06431 42.1285 5.87248C41.5991 5.56876 41.0936 5.2251 40.6165 4.84448L37.9085 2.85648C35.7725 1.28848 34.7045 0.504478 33.5485 0.200478C32.5155 -0.0616176 31.4334 -0.0616176 30.4005 0.200478C29.2325 0.504478 28.1605 1.28848 26.0405 2.85648ZM47.3605 24.4965C47.592 24.2141 47.7645 23.8882 47.8679 23.538C47.9713 23.1878 48.0034 22.8204 47.9624 22.4576C47.9214 22.0947 47.808 21.7438 47.6291 21.4255C47.4501 21.1072 47.2092 20.8281 46.9205 20.6045C46.3333 20.1451 45.5899 19.9331 44.8487 20.0138C44.1075 20.0945 43.4271 20.4615 42.9525 21.0365L29.7125 37.2765L22.6325 31.8365C22.0541 31.3658 21.3148 31.1396 20.5721 31.2061C19.8294 31.2726 19.142 31.6265 18.6565 32.1925C18.4193 32.47 18.2401 32.7923 18.1296 33.1403C18.0191 33.4883 17.9794 33.8549 18.013 34.2185C18.0465 34.5821 18.1526 34.9352 18.325 35.2571C18.4973 35.579 18.7325 35.863 19.0165 36.0925L28.2965 43.3325C28.8825 43.8092 29.6333 44.0346 30.385 43.9597C31.1366 43.8847 31.8281 43.5155 32.3085 42.9325L47.3485 24.4525L47.3605 24.4965Z" fill="white"/>
</g>
<defs>
<clipPath id="clip0_947_4329">
<rect width="64" height="64" fill="white"/>
</clipPath>
</defs>
</svg>
