<svg width="64" height="64" viewBox="0 0 64 64" fill="none" xmlns="http://www.w3.org/2000/svg">
<path d="M25.0667 5.33301H9.6C8.71634 5.33301 8 6.04935 8 6.93301V17.0663C8 17.95 8.71634 18.6663 9.6 18.6663H25.0667C25.9503 18.6663 26.6667 17.95 26.6667 17.0663V6.93301C26.6667 6.04935 25.9503 5.33301 25.0667 5.33301Z" fill="white" stroke="white" stroke-width="1.5"/>
<path d="M39.7346 45.333H24.268C23.3843 45.333 22.668 46.0494 22.668 46.933V57.0663C22.668 57.95 23.3843 58.6663 24.268 58.6663H39.7346C40.6183 58.6663 41.3346 57.95 41.3346 57.0663V46.933C41.3346 46.0494 40.6183 45.333 39.7346 45.333Z" fill="white" stroke="white" stroke-width="1.5"/>
<path d="M54.3987 5.33301H38.932C38.0484 5.33301 37.332 6.04935 37.332 6.93301V17.0663C37.332 17.95 38.0484 18.6663 38.932 18.6663H54.3987C55.2824 18.6663 55.9987 17.95 55.9987 17.0663V6.93301C55.9987 6.04935 55.2824 5.33301 54.3987 5.33301Z" fill="white" stroke="white" stroke-width="1.5"/>
<path d="M17.332 18.666V27.9993C17.332 29.4138 17.8939 30.7704 18.8941 31.7706C19.8943 32.7708 21.2509 33.3327 22.6654 33.3327H41.332C42.7465 33.3327 44.1031 32.7708 45.1033 31.7706C46.1035 30.7704 46.6654 29.4138 46.6654 27.9993V18.666M31.9987 33.3327V45.3327" stroke="white" stroke-width="1.5"/>
</svg>
