<svg width="64" height="64" viewBox="0 0 64 64" fill="none" xmlns="http://www.w3.org/2000/svg">
<path d="M32.0026 5.33398C27.0519 5.33398 22.304 7.30065 18.8033 10.8013C15.3026 14.302 13.3359 19.0499 13.3359 24.0007C13.3359 30.3473 16.5093 35.9207 21.3359 39.3073V45.334C21.3359 46.0412 21.6169 46.7195 22.117 47.2196C22.6171 47.7197 23.2954 48.0007 24.0026 48.0007H40.0026C40.7098 48.0007 41.3881 47.7197 41.8882 47.2196C42.3883 46.7195 42.6693 46.0412 42.6693 45.334V39.3073C47.4959 35.9207 50.6693 30.3473 50.6693 24.0007C50.6693 19.0499 48.7026 14.302 45.2019 10.8013C41.7012 7.30065 36.9533 5.33398 32.0026 5.33398ZM24.0026 56.0007C24.0026 56.7079 24.2836 57.3862 24.7837 57.8863C25.2837 58.3864 25.962 58.6673 26.6693 58.6673H37.3359C38.0432 58.6673 38.7215 58.3864 39.2216 57.8863C39.7217 57.3862 40.0026 56.7079 40.0026 56.0007V53.334H24.0026V56.0007Z" fill="#45B6AF"/>
</svg>
