<svg width="64" height="64" viewBox="0 0 64 64" fill="none" xmlns="http://www.w3.org/2000/svg">
<path d="M58.747 28.9998L53.051 19.5518C52.6341 18.8658 52.0482 18.2981 51.3493 17.9031C50.6503 17.5082 49.8618 17.2991 49.059 17.2958H44.587V16.6318C44.5871 15.6729 44.3977 14.7235 44.0298 13.8379C43.6618 12.9524 43.1226 12.1483 42.443 11.4718C41.0692 10.1029 39.2091 9.33393 37.2697 9.33317H10.6483C9.19942 9.32358 7.78062 9.74656 6.5735 10.548C5.36638 11.3494 4.42586 12.4928 3.87233 13.8318C3.50608 14.7196 3.32112 15.6716 3.32833 16.6318V40.5198C3.32983 41.6417 3.73777 42.7251 4.47662 43.5694C5.21547 44.4136 6.23519 44.9616 7.34699 45.1118C7.33455 45.3518 7.33455 45.591 7.34699 45.8292C7.33751 46.9602 7.55654 48.0815 7.99094 49.1258C8.42534 50.1701 9.06617 51.1159 9.87499 51.9065C10.6687 52.7326 11.6187 53.3926 12.6698 53.8481C13.721 54.3036 14.8522 54.5456 15.9977 54.5598C18.2839 54.5391 20.4711 53.624 22.091 52.0105C23.7094 50.3996 24.6289 48.2165 24.651 45.9332C24.6647 45.7129 24.6647 45.4921 24.651 45.2718H39.3417C39.328 45.4921 39.328 45.7129 39.3417 45.9332C39.3318 47.0646 39.5507 48.1864 39.9851 49.2312C40.4195 50.276 41.0605 51.2222 41.8697 52.0132C42.664 52.8399 43.6149 53.5003 44.667 53.9558C45.719 54.4113 46.8513 54.6529 47.9977 54.6665C50.2839 54.6458 52.4711 53.7307 54.091 52.1172C55.7084 50.5058 56.627 48.3228 56.6483 46.0398C56.6621 45.8187 56.6621 45.597 56.6483 45.3758H58.6643C59.1903 45.3683 59.6928 45.1566 60.0655 44.7853C60.4382 44.4141 60.652 43.9125 60.6617 43.3865V35.7172C60.6617 33.3438 59.9977 31.0185 58.747 28.9998ZM20.6297 45.8265C20.6304 46.4361 20.5083 47.0396 20.2705 47.6008C20.0327 48.1621 19.6841 48.6697 19.2457 49.0932C18.3585 49.9361 17.1815 50.4062 15.9577 50.4062C14.7339 50.4062 13.5568 49.9361 12.6697 49.0932C12.2372 48.6617 11.8948 48.1486 11.6623 47.5837C11.4297 47.0188 11.3117 46.4134 11.315 45.8025C11.3025 45.1717 11.43 44.5461 11.6883 43.9705C12.0403 43.1358 12.6457 42.4318 13.4163 41.9518C14.2046 41.4308 15.133 41.1629 16.0777 41.1838C16.979 41.1838 17.859 41.4505 18.6057 41.9518C19.371 42.4398 19.9737 43.1412 20.339 43.9705C20.6003 44.5438 20.739 45.1705 20.7363 45.8025L20.6297 45.8265ZM29.2803 32.5572H15.9737C15.2692 32.5565 14.5936 32.277 14.0945 31.7799C13.5953 31.2828 13.3132 30.6083 13.3097 29.9038C13.309 29.5544 13.3773 29.2083 13.5109 28.8854C13.6445 28.5625 13.8406 28.2691 14.0879 28.0223C14.3352 27.7755 14.6289 27.58 14.9521 27.447C15.2753 27.3141 15.6216 27.2464 15.971 27.2478H29.2803C29.9848 27.2492 30.6601 27.5293 31.1587 28.027C31.6574 28.5246 31.9388 29.1994 31.9417 29.9038C31.942 30.253 31.8734 30.5989 31.7396 30.9215C31.6059 31.2441 31.4098 31.5371 31.1625 31.7836C30.9152 32.0302 30.6216 32.2255 30.2986 32.3582C29.9756 32.491 29.6295 32.5586 29.2803 32.5572ZM29.2803 23.4265H15.9737C15.2692 23.4258 14.5936 23.1464 14.0945 22.6492C13.5953 22.1521 13.3132 21.4776 13.3097 20.7732C13.3093 20.424 13.378 20.0781 13.5117 19.7555C13.6454 19.4329 13.8415 19.1399 14.0888 18.8934C14.3361 18.6468 14.6297 18.4515 14.9527 18.3188C15.2757 18.186 15.6218 18.1184 15.971 18.1198H29.2803C29.9843 18.1212 30.6592 18.401 31.1578 18.898C31.6564 19.3951 31.9381 20.0692 31.9417 20.7732C31.942 21.1224 31.8734 21.4682 31.7396 21.7908C31.6059 22.1134 31.4098 22.4064 31.1625 22.653C30.9152 22.8995 30.6216 23.0948 30.2986 23.2275C29.9756 23.3603 29.6295 23.4279 29.2803 23.4265ZM52.571 45.8265C52.5714 46.4363 52.4489 47.0399 52.2106 47.6012C51.9723 48.1625 51.6233 48.6699 51.1843 49.0932C50.2973 49.9354 49.1208 50.4049 47.8977 50.4049C46.6745 50.4049 45.498 49.9354 44.611 49.0932C44.1781 48.6619 43.8352 48.1489 43.6022 47.584C43.3692 47.0191 43.2507 46.4136 43.2537 45.8025C43.2423 44.8356 43.5518 43.8922 44.1337 43.1198C44.7897 42.2478 45.731 41.6265 46.795 41.3678H47.4617C47.5835 41.3388 47.7105 41.3388 47.8323 41.3678H48.3657C49.1737 41.4612 49.9443 41.7625 50.6003 42.2452C51.259 42.7278 51.7737 43.3785 52.091 44.1305C52.355 44.7038 52.491 45.3305 52.491 45.9598L52.571 45.8265Z" fill="#45B6AF"/>
<path d="M47.8968 41.1568C47.7741 41.1274 47.6461 41.1274 47.5234 41.1568H47.8968Z" fill="#45B6AF"/>
</svg>
