<svg width="64" height="64" viewBox="0 0 64 64" fill="none" xmlns="http://www.w3.org/2000/svg">
<path d="M26.108 43.1277L26.104 43.1157L25.344 42.8677C21.7294 41.5901 18.5582 39.3005 16.208 36.2717C14.3075 33.8244 13.0017 30.969 12.3935 27.9308C11.7852 24.8925 11.8913 21.7545 12.7032 18.7642C13.5151 15.7739 15.0107 13.0132 17.072 10.6998C19.1334 8.38637 21.704 6.58353 24.5812 5.43349C27.4584 4.28344 30.5635 3.81764 33.6515 4.07283C36.7395 4.32802 39.726 5.29721 42.3754 6.90397C45.0248 8.51072 47.2646 10.7111 48.9182 13.3315C50.5718 15.9519 51.594 18.9207 51.904 22.0037C52.012 23.1037 51.104 23.9997 50 23.9997C48.896 23.9997 48.012 23.0997 47.88 22.0037C47.523 19.175 46.4166 16.4931 44.6754 14.2355C42.9342 11.9779 40.6213 10.2265 37.9761 9.16266C35.3309 8.09881 32.4495 7.7611 29.63 8.18448C26.8105 8.60787 24.1553 9.77696 21.9392 11.5708C19.7231 13.3646 18.0266 15.718 17.0253 18.3875C16.0239 21.057 15.754 23.9455 16.2435 26.7543C16.7331 29.5631 17.9642 32.19 19.8097 34.3633C21.6551 36.5366 24.0477 38.1773 26.74 39.1157C27.4191 37.8771 28.5134 36.9178 29.8303 36.4067C31.1472 35.8956 32.6022 35.8656 33.939 36.3218C35.2759 36.7781 36.4089 37.6913 37.1386 38.9009C37.8683 40.1104 38.1478 41.5385 37.928 42.9339C37.7082 44.3293 37.0032 45.6023 35.937 46.5289C34.8708 47.4556 33.5119 47.9763 32.0995 47.9994C30.6871 48.0226 29.3118 47.5467 28.2158 46.6555C27.1199 45.7644 26.3734 44.5151 26.108 43.1277ZM22.936 46.2277C19.0184 44.6283 15.5934 42.0215 13.008 38.6717C12.3509 39.6572 12.0001 40.8152 12 41.9997V43.9997C12 51.8837 19.44 59.9997 32 59.9997C44.56 59.9997 52 51.8837 52 43.9997V41.9997C52 40.4084 51.3679 38.8823 50.2426 37.7571C49.1174 36.6318 47.5913 35.9997 46 35.9997H40C40.839 37.1201 41.4334 38.4042 41.7447 39.7689C42.0561 41.1335 42.0775 42.5484 41.8076 43.9218C41.5377 45.2953 40.9824 46.5968 40.1778 47.7421C39.3731 48.8874 38.337 49.8511 37.1364 50.5707C35.9358 51.2903 34.5976 51.7498 33.2082 51.9196C31.8188 52.0894 30.4092 51.9656 29.0707 51.5562C27.7322 51.1468 26.4945 50.461 25.4377 49.5431C24.381 48.6253 23.5287 47.4958 22.936 46.2277ZM44 23.9997C44 20.3437 42.364 17.0677 39.784 14.8677C38.5243 13.8007 37.058 13.0051 35.4768 12.5306C33.8956 12.0562 32.2335 11.9131 30.5944 12.1103C28.9554 12.3075 27.3747 12.8408 25.9511 13.6768C24.5276 14.5128 23.2919 15.6335 22.3213 16.9689C21.3506 18.3043 20.666 19.8256 20.3101 21.4376C19.9542 23.0497 19.9348 24.7178 20.2531 26.3377C20.5713 27.9576 21.2204 29.4944 22.1597 30.852C23.099 32.2096 24.3083 33.3588 25.712 34.2277C27.4907 32.7858 29.7103 31.9979 32 31.9957C34.2887 31.9956 36.5083 32.7806 38.288 34.2197C40.0336 33.1458 41.4751 31.6426 42.475 29.8536C43.4749 28.0645 43.9999 26.0492 44 23.9997Z" fill="white"/>
</svg>
